<?xml version="1.0" encoding="UTF-8"?>
<svg version="1.1" xmlns="http://www.w3.org/2000/svg" width="273" height="273">
<path d="M0 0 C1.31401291 -0.00262848 1.31401291 -0.00262848 2.65457153 -0.00531006 C5.53063989 -0.00968567 8.40664593 -0.00680419 11.28271484 -0.00341797 C13.30040499 -0.0040926 15.31809505 -0.00506396 17.33578491 -0.00631714 C21.56045304 -0.00778862 25.78509997 -0.00565857 30.00976562 -0.00097656 C35.3889874 0.00469836 40.76815902 0.00145243 46.14737892 -0.00454903 C50.31530118 -0.00818832 54.48321185 -0.00700031 58.65113449 -0.00442123 C60.6323993 -0.00376011 62.61366521 -0.00455149 64.59492874 -0.00690079 C89.12091843 -0.02958939 109.60496282 0.75306763 128.18115234 18.94189453 C138.92753938 29.93507063 144.18517923 42.53149489 144.36865234 58.00439453 C144.1948852 71.50509659 141.18405281 83.25540931 132.86865234 94.12939453 C132.39556641 94.78294922 131.92248047 95.43650391 131.43505859 96.10986328 C125.82005647 103.31551757 117.70580066 107.71558953 109.86865234 112.12939453 C117.05548381 120.06569074 124.41192373 127.77748238 132.05444336 135.27807617 C132.66731201 135.88256592 133.28018066 136.48705566 133.91162109 137.10986328 C134.45842529 137.64506592 135.00522949 138.18026855 135.56860352 138.73168945 C138.1936739 141.55394822 138.2133858 144.26186128 138.13818359 148.03564453 C137.67690259 151.61892887 136.27265411 153.48499259 133.86865234 156.12939453 C129.3197792 159.24585656 125.4542526 160.74841724 119.86865234 160.12939453 C117.51708984 158.58251953 117.51708984 158.58251953 115.24365234 156.37939453 C114.38900391 155.56083984 113.53435547 154.74228516 112.65380859 153.89892578 C111.27515625 152.52800781 111.27515625 152.52800781 109.86865234 151.12939453 C108.84699596 150.13280947 107.8248478 149.13672833 106.80224609 148.14111328 C101.90253808 143.33493749 97.18133882 138.43072108 92.72021484 133.21142578 C90.28908626 130.47768837 87.75030618 127.85739198 85.18115234 125.25439453 C84.26978516 124.32884766 83.35841797 123.40330078 82.41943359 122.44970703 C77.65543299 118.11614446 73.88142055 117.82116006 67.56005859 117.82861328 C66.75632309 117.82432816 65.95258759 117.82004303 65.12449646 117.81562805 C63.42748963 117.80989461 61.73045822 117.80937723 60.03344727 117.8137207 C57.44358191 117.81687937 54.85486084 117.79341484 52.26513672 117.76806641 C50.61344545 117.7657931 48.96175111 117.76509006 47.31005859 117.76611328 C46.15359581 117.75229866 46.15359581 117.75229866 44.97377014 117.73820496 C40.46219417 117.77683376 37.3611148 118.16488681 33.86865234 121.12939453 C32.49413515 124.25669404 32.71502616 127.64958221 32.65771484 131.03173828 C32.62935547 132.16933594 32.60099609 133.30693359 32.57177734 134.47900391 C32.51978246 136.86686905 32.47548492 139.25491447 32.43896484 141.64306641 C32.40802734 142.78195313 32.37708984 143.92083984 32.34521484 145.09423828 C32.32539551 146.13185303 32.30557617 147.16946777 32.28515625 148.23852539 C31.80759353 151.55319138 30.83840847 153.44072145 28.86865234 156.12939453 C24.95819074 158.76668259 21.48150666 159.73450936 16.82958984 159.54736328 C13.14116868 158.76118586 11.42757729 156.87109983 8.86865234 154.12939453 C6.56138257 149.78592092 6.53089597 145.49193237 6.49755859 140.68017578 C6.48853012 139.86751755 6.47950165 139.05485931 6.47019958 138.21757507 C6.45572678 136.50047468 6.44681774 134.78331951 6.44311523 133.06616211 C6.43126736 130.46712618 6.38209807 127.87050472 6.33154297 125.27197266 C6.23352369 115.30004092 6.45193182 106.87284718 13.67382812 99.21533203 C20.18104498 93.12618183 27.37603631 92.01618367 36.08251953 91.98754883 C37.89535431 91.97699715 37.89535431 91.97699715 39.74481201 91.9662323 C41.6855661 91.95998589 41.6855661 91.95998589 43.66552734 91.95361328 C45.02305873 91.94317166 46.38058286 91.93174621 47.73809814 91.91938782 C53.47689586 91.86726022 59.21556052 91.81900831 64.95458984 91.8034668 C68.47608061 91.79331012 71.99697354 91.76379894 75.51822662 91.72214699 C77.490975 91.70406741 79.4638775 91.7064681 81.43670654 91.70939636 C92.08280531 91.56562864 100.51629838 89.12813129 108.82177734 82.32470703 C115.39643925 75.27325667 118.23725105 66.13217668 118.07958984 56.65673828 C117.38748974 48.36435371 114.9495991 40.96414911 108.86865234 35.12939453 C99.68937086 28.02738164 91.42846815 25.82714049 80.04711914 25.83886719 C79.09801666 25.83214996 78.14891418 25.82543274 77.17105103 25.81851196 C74.05327019 25.79961317 70.93570554 25.79561191 67.81787109 25.79345703 C65.63605157 25.78702364 63.45423291 25.78029488 61.27241516 25.77328491 C56.70559693 25.76133255 52.13885424 25.75760201 47.57202148 25.75878906 C41.74167707 25.75899217 35.91182052 25.73168904 30.08159161 25.69724464 C25.57664294 25.67492642 21.07181079 25.67095303 16.56681252 25.67200851 C14.41837699 25.66966002 12.26993788 25.66087919 10.12155724 25.64534378 C-7.49478656 25.16055232 -7.49478656 25.16055232 -23.06884766 32.44189453 C-25.89998658 36.13095434 -28.05040523 39.96750967 -30.13134766 44.12939453 C-29.28016468 44.13297706 -29.28016468 44.13297706 -28.41178608 44.13663197 C-14.59860229 44.19579117 -0.78559499 44.27153566 13.02740002 44.36510944 C19.70730788 44.40986007 26.38713248 44.44910597 33.06713867 44.47583008 C39.51224121 44.50181598 45.95710708 44.54218542 52.40206337 44.5925808 C54.86243054 44.60928134 57.32283867 44.62077571 59.78325462 44.62700844 C63.2262803 44.63661459 66.66869609 44.66463331 70.11157227 44.69702148 C71.13152786 44.6955864 72.15148346 44.69415131 73.2023468 44.69267273 C79.40926394 44.7753891 82.96035762 45.52195788 87.68115234 49.75439453 C89.54941457 53.49091898 89.38197394 57.03748811 88.86865234 61.12939453 C87.22036485 65.76520312 84.39143668 67.24276126 80.16679382 69.27967072 C76.24800689 70.72861832 72.47084363 70.6997837 68.33154297 70.67529297 C67.41353912 70.68563065 66.49553528 70.69596832 65.54971313 70.70661926 C62.54126102 70.73591532 59.53348554 70.73754365 56.52490234 70.73876953 C54.42882006 70.75376007 52.33274955 70.77048905 50.23669434 70.78887939 C44.73929281 70.83246677 39.24205061 70.85253301 33.74450684 70.86761475 C28.12693902 70.88721682 22.50954247 70.92918339 16.89208984 70.96923828 C5.88433029 71.04444718 -5.12339076 71.09479515 -16.13134766 71.12939453 C-16.75462138 83.06058454 -17.26749542 94.96203044 -17.34228516 106.91064453 C-17.37028202 109.50830786 -17.39894563 112.10596407 -17.42822266 114.70361328 C-17.46981375 118.70180462 -17.50793108 122.69991519 -17.53271484 126.69824219 C-17.55764942 130.62343004 -17.60597079 134.5481791 -17.65478516 138.47314453 C-17.65803802 139.67201294 -17.66129089 140.87088135 -17.66464233 142.1060791 C-17.6812088 143.21914429 -17.69777527 144.33220947 -17.71484375 145.47900391 C-17.7229306 146.45268921 -17.73101746 147.42637451 -17.73934937 148.42956543 C-18.20587649 151.6427006 -19.22856812 153.51642885 -21.13134766 156.12939453 C-25.49058873 159.00253069 -28.95415328 159.94684628 -34.13134766 159.12939453 C-38.78626791 156.30251988 -41.46081832 153.33211906 -43.13134766 148.12939453 C-43.30782403 145.51540121 -43.38479004 143.01260532 -43.35839844 140.40161133 C-43.35869049 139.64010269 -43.35898254 138.87859406 -43.35928345 138.0940094 C-43.35789534 135.58875955 -43.34235877 133.08381087 -43.32666016 130.57861328 C-43.32292818 128.83698184 -43.32008208 127.09534829 -43.31808472 125.35371399 C-43.31046282 120.77849491 -43.29082674 116.2034036 -43.26867676 111.62823486 C-43.24818722 106.95611296 -43.23907636 102.28397033 -43.22900391 97.61181641 C-43.20757947 88.4509531 -43.17346096 79.29018446 -43.13134766 70.12939453 C-43.74020309 70.16306625 -44.34905853 70.19673798 -44.97636414 70.23143005 C-51.55734366 70.4459147 -51.55734366 70.4459147 -54.29858398 68.93432617 C-58.29037971 63.89467507 -59.05728046 59.92713528 -58.81884766 53.56689453 C-58.79959229 52.68791504 -58.78033691 51.80893555 -58.76049805 50.90332031 C-58.11674055 35.72725651 -51.25915965 23.40837933 -40.35791016 13.01220703 C-28.18789727 2.72107333 -15.55370795 -0.03889298 0 0 Z " fill="#3EAFC2" transform="translate(87.13134765625,34.87060546875)"/>
<path d="M0 0 C1.31401291 -0.00262848 1.31401291 -0.00262848 2.65457153 -0.00531006 C5.53063989 -0.00968567 8.40664593 -0.00680419 11.28271484 -0.00341797 C13.30040499 -0.0040926 15.31809505 -0.00506396 17.33578491 -0.00631714 C21.56045304 -0.00778862 25.78509997 -0.00565857 30.00976562 -0.00097656 C35.3889874 0.00469836 40.76815902 0.00145243 46.14737892 -0.00454903 C50.31530118 -0.00818832 54.48321185 -0.00700031 58.65113449 -0.00442123 C60.6323993 -0.00376011 62.61366521 -0.00455149 64.59492874 -0.00690079 C108.7686173 -0.04776517 108.7686173 -0.04776517 126.05615234 17.06689453 C127.00461453 18.07755096 127.94686549 19.0943506 128.86865234 20.12939453 C127.87865234 20.45939453 126.88865234 20.78939453 125.86865234 21.12939453 C120.31309679 17.01828342 120.31309679 17.01828342 118.86865234 14.12939453 C115.80543596 12.78033266 112.6886316 11.62417446 109.55615234 10.44580078 C108.66927734 10.01138672 107.78240234 9.57697266 106.86865234 9.12939453 C106.53865234 8.13939453 106.20865234 7.14939453 105.86865234 6.12939453 C98.41268079 4.44578805 90.87505518 3.98345879 83.25390625 3.90820312 C82.03950363 3.89094429 82.03950363 3.89094429 80.80056763 3.87333679 C78.14882014 3.83694672 75.49704995 3.80708776 72.84521484 3.77783203 C70.97545106 3.75465731 69.10568993 3.73126673 67.2359314 3.70767212 C63.32072792 3.65936451 59.40550327 3.61444011 55.49023438 3.57177734 C50.52733392 3.51732546 45.56461022 3.45335838 40.60186195 3.3866024 C36.73746377 3.33592204 32.87301313 3.29106097 29.00852585 3.24776077 C27.18208912 3.22651887 25.35567269 3.20343281 23.52928543 3.17829514 C14.18638189 3.05245167 4.86985134 3.06961833 -4.46582031 3.49902344 C-5.23501989 3.53018942 -6.00421947 3.5613554 -6.79672813 3.59346581 C-13.92015449 3.97649014 -19.79839989 5.83098424 -26.13134766 9.12939453 C-27.34822266 9.62439453 -28.56509766 10.11939453 -29.81884766 10.62939453 C-34.1328625 12.58291069 -35.54181264 14.24509201 -38.13134766 18.12939453 C-38.76814453 18.43361328 -39.40494141 18.73783203 -40.06103516 19.05126953 C-44.76808515 21.50248802 -47.49627462 27.45814971 -49.31884766 32.25439453 C-49.72103516 33.67751953 -49.72103516 33.67751953 -50.13134766 35.12939453 C-50.61861328 36.15935547 -51.10587891 37.18931641 -51.60791016 38.25048828 C-53.42965034 42.44087585 -53.89688505 46.54918478 -54.31884766 51.06689453 C-54.40070312 51.84613281 -54.48255859 52.62537109 -54.56689453 53.42822266 C-54.76498936 55.3276025 -54.94958607 57.22838215 -55.13134766 59.12939453 C-54.47134766 59.12939453 -53.81134766 59.12939453 -53.13134766 59.12939453 C-52.47134766 61.43939453 -51.81134766 63.74939453 -51.13134766 66.12939453 C-48.15283203 66.08056641 -48.15283203 66.08056641 -45.17431641 66.03173828 C-43.13134766 66.12939453 -43.13134766 66.12939453 -40.13134766 67.12939453 C-39.28945418 72.51895189 -38.7804245 77.87332504 -38.44384766 83.31689453 C-38.38390625 84.1103125 -38.32396484 84.90373047 -38.26220703 85.72119141 C-38.21515625 86.48882812 -38.16810547 87.25646484 -38.11962891 88.04736328 C-38.07362549 88.73596436 -38.02762207 89.42456543 -37.98022461 90.1340332 C-38.13134766 92.12939453 -38.13134766 92.12939453 -39.12362671 93.92660522 C-40.33190317 96.56779123 -40.3914491 98.47036164 -40.40600586 101.36938477 C-40.41553787 102.41404404 -40.42506989 103.45870331 -40.43489075 104.53501892 C-40.43352364 106.21948875 -40.43352364 106.21948875 -40.43212891 107.93798828 C-40.43641403 109.0968605 -40.44069916 110.25573273 -40.44511414 111.44972229 C-40.45085594 113.89998725 -40.45135881 116.35026926 -40.44702148 118.80053711 C-40.44386263 122.54912399 -40.46731987 126.29692092 -40.49267578 130.04541016 C-40.49494888 132.42626854 -40.49565222 134.80712904 -40.49462891 137.18798828 C-40.50383865 138.30894394 -40.5130484 139.4298996 -40.52253723 140.58482361 C-40.51319405 142.15654076 -40.51319405 142.15654076 -40.50366211 143.76000977 C-40.50429153 144.6783812 -40.50492096 145.59675262 -40.50556946 146.54295349 C-40.04830239 149.70336342 -39.0009534 151.55745457 -37.13134766 154.12939453 C-33.42169024 156.60249947 -30.43320198 156.68839255 -26.13134766 156.12939453 C-22.72892942 154.76450774 -22.72892942 154.76450774 -20.13134766 153.12939453 C-21.13134766 156.12939453 -21.13134766 156.12939453 -23.75634766 157.81689453 C-27.68890222 159.34622131 -29.95041754 159.78954139 -34.13134766 159.12939453 C-38.78626791 156.30251988 -41.46081832 153.33211906 -43.13134766 148.12939453 C-43.30782403 145.51540121 -43.38479004 143.01260532 -43.35839844 140.40161133 C-43.35869049 139.64010269 -43.35898254 138.87859406 -43.35928345 138.0940094 C-43.35789534 135.58875955 -43.34235877 133.08381087 -43.32666016 130.57861328 C-43.32292818 128.83698184 -43.32008208 127.09534829 -43.31808472 125.35371399 C-43.31046282 120.77849491 -43.29082674 116.2034036 -43.26867676 111.62823486 C-43.24818722 106.95611296 -43.23907636 102.28397033 -43.22900391 97.61181641 C-43.20757947 88.4509531 -43.17346096 79.29018446 -43.13134766 70.12939453 C-43.74020309 70.16306625 -44.34905853 70.19673798 -44.97636414 70.23143005 C-51.55734366 70.4459147 -51.55734366 70.4459147 -54.29858398 68.93432617 C-58.29037971 63.89467507 -59.05728046 59.92713528 -58.81884766 53.56689453 C-58.79959229 52.68791504 -58.78033691 51.80893555 -58.76049805 50.90332031 C-58.11674055 35.72725651 -51.25915965 23.40837933 -40.35791016 13.01220703 C-28.18789727 2.72107333 -15.55370795 -0.03889298 0 0 Z " fill="#C0F2EB" transform="translate(87.13134765625,34.87060546875)"/>
<path d="M0 0 C5.20018643 -0.2900104 7.99212162 0.83124782 11.90625 4.19921875 C14.00411599 6.56777712 14.85889826 8.13380455 15 11.30859375 C14.63851005 16.69479395 13.24646467 19.9970132 9.90625 24.19921875 C10.6796875 25.28203125 10.6796875 25.28203125 11.46875 26.38671875 C13.12067982 29.61875535 12.96976675 30.81530182 11.90625 34.19921875 C10.21875 34.94921875 10.21875 34.94921875 7.90625 35.19921875 C4.57300393 33.00415427 2.04316144 30.57328945 -0.09375 27.19921875 C-0.09375 26.53921875 -0.09375 25.87921875 -0.09375 25.19921875 C-1.08375 25.19921875 -2.07375 25.19921875 -3.09375 25.19921875 C-3.42375 28.16921875 -3.75375 31.13921875 -4.09375 34.19921875 C-8.09375 35.19921875 -8.09375 35.19921875 -10.31494141 34.17211914 C-12.86013657 31.34920916 -12.58072986 29.39286994 -12.5546875 25.6328125 C-12.55082031 24.34310547 -12.54695313 23.05339844 -12.54296875 21.72460938 C-12.53056152 21.05405518 -12.5181543 20.38350098 -12.50537109 19.69262695 C-12.46881351 17.64028394 -12.46435204 15.58974427 -12.46484375 13.53710938 C-12.37428224 3.47975099 -12.37428224 3.47975099 -10.09375 1.19921875 C-6.71610274 0.61686577 -3.40475318 0.32395972 0 0 Z M-4.09375 10.19921875 C-4.09375 11.51921875 -4.09375 12.83921875 -4.09375 14.19921875 C-3.43375 14.19921875 -2.77375 14.19921875 -2.09375 14.19921875 C-2.09375 14.85921875 -2.09375 15.51921875 -2.09375 16.19921875 C-0.11375 16.19921875 1.86625 16.19921875 3.90625 16.19921875 C4.56625 14.87921875 5.22625 13.55921875 5.90625 12.19921875 C2.39848216 10.59566774 -0.23729879 9.97885011 -4.09375 10.19921875 Z " fill="#7299AE" transform="translate(106.09375,220.80078125)"/>
<path d="M0 0 C4.77264929 2.02476031 7.24830226 9.88525124 9.625 14.375 C10.22344727 15.49455078 10.22344727 15.49455078 10.83398438 16.63671875 C16.39132737 27.12052106 16.39132737 27.12052106 16.0625 32.875 C14.4125 33.535 12.7625 34.195 11.0625 34.875 C9.35365995 33.25160195 7.68803283 31.58180947 6.0625 29.875 C6.0625 29.215 6.0625 28.555 6.0625 27.875 C-2.29538312 27.46308012 -2.29538312 27.46308012 -9.7578125 30.27734375 C-10.97638563 32.07388639 -10.97638563 32.07388639 -11.9375 34.875 C-16.8125 34 -16.8125 34 -17.9375 32.875 C-18.98364932 26.50488285 -15.58464613 21.69062115 -12.625 16.3125 C-12.12548828 15.37986328 -11.62597656 14.44722656 -11.11132812 13.48632812 C-3.72458468 -0.24029579 -3.72458468 -0.24029579 0 0 Z M-0.9375 16.875 C-0.9375 17.535 -0.9375 18.195 -0.9375 18.875 C-0.2775 18.545 0.3825 18.215 1.0625 17.875 C0.4025 17.545 -0.2575 17.215 -0.9375 16.875 Z " fill="#185B7F" transform="translate(160.9375,221.125)"/>
<path d="M0 0 C0.99249756 0.00624893 1.98499512 0.01249786 3.00756836 0.01893616 C6.28606438 0.04239908 9.56418781 0.08080422 12.8425293 0.12011719 C15.12549791 0.14122226 17.4084724 0.16170073 19.69145203 0.18157959 C24.47717525 0.22559219 29.26274878 0.27694839 34.04833984 0.33349609 C40.17137185 0.40529877 46.29440566 0.45936905 52.41766071 0.50795364 C57.13358136 0.54726987 61.84937234 0.59583353 66.56517601 0.64717865 C68.82210757 0.6706866 71.07907017 0.6913908 73.33605385 0.70920563 C76.49765916 0.73559425 79.65888116 0.774397 82.8203125 0.81640625 C84.21007545 0.82435966 84.21007545 0.82435966 85.62791443 0.83247375 C96.50532416 1.00809853 106.10926314 3.93263976 114.4440918 11.20996094 C122.0971191 19.26202877 124.71910223 27.17510156 124.57739258 38.19238281 C124.146408 48.02349059 121.01223257 55.27767789 114.10424805 62.16699219 C113.40299805 62.99199219 112.70174805 63.81699219 111.97924805 64.66699219 C111.36049805 65.16199219 110.74174805 65.65699219 110.10424805 66.16699219 C107.98706055 65.76074219 107.98706055 65.76074219 106.10424805 65.16699219 C106.68432617 64.80089844 107.2644043 64.43480469 107.86206055 64.05761719 C115.28582118 58.91243655 119.57923245 52.37864107 121.74487305 43.55761719 C123.13397854 34.31704583 121.8837168 24.80567815 116.60424805 16.91699219 C110.82519428 9.93037494 102.93689345 5.76859303 94.10424805 4.16699219 C90.82782774 3.89316771 87.56934439 3.87307849 84.28271484 3.87646484 C83.33361237 3.86974762 82.38450989 3.8630304 81.40664673 3.85610962 C78.28886589 3.83721083 75.17130125 3.83320956 72.0534668 3.83105469 C69.87164728 3.82462129 67.68982861 3.81789253 65.50801086 3.81088257 C60.94119264 3.79893021 56.37444994 3.79519966 51.80761719 3.79638672 C45.97727277 3.79658982 40.14741622 3.7692867 34.31718731 3.7348423 C29.81223864 3.71252407 25.30740649 3.70855069 20.80240822 3.70960617 C18.65397269 3.70725767 16.50553358 3.69847685 14.35715294 3.68294144 C-3.25919086 3.19814997 -3.25919086 3.19814997 -18.83325195 10.47949219 C-21.66439087 14.16855199 -23.81480952 18.00510733 -25.89575195 22.16699219 C-24.24575195 22.16699219 -22.59575195 22.16699219 -20.89575195 22.16699219 C-20.89575195 22.82699219 -20.89575195 23.48699219 -20.89575195 24.16699219 C-23.22183765 24.54762439 -25.55630459 24.87969163 -27.89575195 25.16699219 C-28.89575195 24.16699219 -28.89575195 24.16699219 -29.33325195 21.66699219 C-28.36706136 13.93746745 -22.59784456 8.48598027 -16.9230957 3.57714844 C-11.44958222 -0.23005459 -6.4394075 -0.09252052 0 0 Z " fill="#E6EFF1" transform="translate(82.895751953125,56.8330078125)"/>
<path d="M0 0 C3.82592578 -0.09895391 5.46223626 -0.08197921 8.73095703 2.09716797 C9.04345703 4.59716797 9.04345703 4.59716797 8.73095703 7.09716797 C6.73095703 9.09716797 6.73095703 9.09716797 4.78564453 9.29248047 C2.76741536 9.2273763 0.7491862 9.16227214 -1.26904297 9.09716797 C-1.2480957 9.74266602 -1.22714844 10.38816406 -1.20556641 11.05322266 C-1.12230092 13.98437865 -1.07035091 16.91528574 -1.01904297 19.84716797 C-0.96876953 21.37083984 -0.96876953 21.37083984 -0.91748047 22.92529297 C-0.81791631 30.49216866 -0.81791631 30.49216866 -3.28466797 33.80029297 C-3.93951172 34.22826172 -4.59435547 34.65623047 -5.26904297 35.09716797 C-7.74951172 34.29638672 -7.74951172 34.29638672 -10.26904297 32.09716797 C-10.93567204 28.36483407 -10.73602083 24.68605747 -10.58154297 20.90966797 C-10.54770508 19.35602539 -10.54770508 19.35602539 -10.51318359 17.77099609 C-10.45421142 15.21160393 -10.37196864 12.65510846 -10.26904297 10.09716797 C-10.89552734 10.04818359 -11.52201172 9.99919922 -12.16748047 9.94873047 C-13.39337891 9.83658203 -13.39337891 9.83658203 -14.64404297 9.72216797 C-15.45615234 9.65255859 -16.26826172 9.58294922 -17.10498047 9.51123047 C-19.26904297 9.09716797 -19.26904297 9.09716797 -21.26904297 7.09716797 C-21.45654297 4.53466797 -21.45654297 4.53466797 -21.26904297 2.09716797 C-19.15034263 -0.02153237 -14.64415651 0.67654796 -11.70654297 0.53466797 C-10.52608398 0.46989258 -10.52608398 0.46989258 -9.32177734 0.40380859 C-6.21541878 0.24247258 -3.10760973 0.13307819 0 0 Z " fill="#7AA2B5" transform="translate(67.26904296875,220.90283203125)"/>
<path d="M0 0 C0.78375 0.2475 1.5675 0.495 2.375 0.75 C4.35462548 4.70925096 3.64753472 9.64644886 3.6875 14 C3.71650391 15.03769531 3.74550781 16.07539063 3.77539062 17.14453125 C3.82695432 23.35597383 3.56370677 27.04540471 -0.625 31.75 C-3.73028478 34.35172509 -5.10170002 34.7591807 -9.1875 34.6875 C-12.92302622 33.66872012 -14.48138172 32.96542743 -16.625 29.75 C-16.375 27 -16.375 27 -15.625 24.75 C-14.325625 24.770625 -13.02625 24.79125 -11.6875 24.8125 C-10.33334367 24.83399454 -8.97743917 24.82148199 -7.625 24.75 C-5.98176701 23.10676701 -6.45803421 21.17268237 -6.4140625 18.91015625 C-6.38570312 17.92982422 -6.35734375 16.94949219 -6.328125 15.93945312 C-6.27614372 13.8589023 -6.23184205 11.77814509 -6.1953125 9.69726562 C-6.164375 8.71564453 -6.1334375 7.73402344 -6.1015625 6.72265625 C-6.08174316 5.81781494 -6.06192383 4.91297363 -6.04150391 3.98071289 C-5.90405762 3.24457764 -5.76661133 2.50844238 -5.625 1.75 C-2.625 -0.25 -2.625 -0.25 0 0 Z " fill="#749BB2" transform="translate(209.625,221.25)"/>
<path d="M0 0 C0 3.51479702 -0.65021767 4.18178057 -2.6875 6.9375 C-8.97429635 16.03994685 -12.1019716 25.43462074 -12.3125 36.4375 C-12.34988281 37.71496094 -12.38726563 38.99242187 -12.42578125 40.30859375 C-11.92449627 44.6545966 -10.90660845 46.7485397 -8 50 C-5.47786347 50.89001461 -5.47786347 50.89001461 -2.8125 50.8125 C1.9592145 50.9592145 1.9592145 50.9592145 3 52 C3.10905528 54.46798141 3.15422123 56.9090098 3.15771484 59.37792969 C3.16533592 60.53653 3.16533592 60.53653 3.17311096 61.71853638 C3.18383862 63.40187178 3.19244934 65.08522165 3.19923019 66.76857758 C3.21098791 69.43329902 3.23043376 72.09785609 3.25234985 74.76251221 C3.31406211 82.34096804 3.36798183 89.91940927 3.40136719 97.49804688 C3.42231938 102.12885006 3.45763185 106.75935756 3.50212479 111.38999176 C3.51628614 113.15537279 3.52500753 114.92080617 3.52817917 116.68624115 C3.53309091 119.1593056 3.55625653 121.63158698 3.58349609 124.10449219 C3.57898689 125.19725967 3.57898689 125.19725967 3.5743866 126.31210327 C3.64625763 130.70847041 4.28275223 133.51398917 7 137 C10.70965741 139.47310494 13.69814567 139.55899802 18 139 C21.40241824 137.6351132 21.40241824 137.6351132 24 136 C23 139 23 139 20.375 140.6875 C16.44244544 142.21682678 14.18093011 142.66014686 10 142 C5.34507974 139.17312535 2.67052933 136.20272453 1 131 C0.82352363 128.38600668 0.74655762 125.88321079 0.77294922 123.2722168 C0.77265717 122.51070816 0.77236511 121.74919952 0.77206421 120.96461487 C0.77345232 118.45936502 0.78898888 115.95441634 0.8046875 113.44921875 C0.80841948 111.70758731 0.81126558 109.96595376 0.81326294 108.22431946 C0.82088484 103.64910038 0.84052092 99.07400907 0.8626709 94.49884033 C0.88316044 89.82671843 0.8922713 85.1545758 0.90234375 80.48242188 C0.92376818 71.32155857 0.95788669 62.16078993 1 53 C0.39114456 53.03367172 -0.21771088 53.06734344 -0.84501648 53.10203552 C-7.42599601 53.31652017 -7.42599601 53.31652017 -10.16723633 51.80493164 C-14.15903205 46.76528053 -14.9259328 42.79774074 -14.6875 36.4375 C-14.66824463 35.55852051 -14.64898926 34.67954102 -14.62915039 33.77392578 C-14.08007023 20.82980381 -9.2464463 9.2464463 0 0 Z " fill="#EAF5F6" transform="translate(43,52)"/>
<path d="M0 0 C0.33 0.99 0.66 1.98 1 3 C1.66 3 2.32 3 3 3 C2.67 3.66 2.34 4.32 2 5 C0.35 5 -1.3 5 -3 5 C-3.33 8.3 -3.66 11.6 -4 15 C-1.03 15 1.94 15 5 15 C5.66 16.98 6.32 18.96 7 21 C5.4375 22.1875 5.4375 22.1875 3 23 C-0.75 21.625 -0.75 21.625 -4 20 C-3.98839844 20.62648437 -3.97679688 21.25296875 -3.96484375 21.8984375 C-3.95130859 23.12433594 -3.95130859 23.12433594 -3.9375 24.375 C-3.92589844 25.18710938 -3.91429688 25.99921875 -3.90234375 26.8359375 C-4 29 -4 29 -5 31 C-6.65 30.67 -8.3 30.34 -10 30 C-10 20.43 -10 10.86 -10 1 C-6.78548731 -0.60725635 -3.56387464 -0.05748185 0 0 Z " fill="#1D5F82" transform="translate(106,223)"/>
<path d="M0 0 C0.80816162 -0.00532368 1.61632324 -0.01064735 2.44897461 -0.01613235 C6.71857747 -0.04260517 10.98815358 -0.06206865 15.2578125 -0.07666016 C18.75286888 -0.09002246 22.24734473 -0.11795517 25.7421875 -0.15869141 C30.01188351 -0.20840423 34.28105252 -0.23282417 38.55102539 -0.23988724 C40.15834359 -0.24652448 41.76565352 -0.26154482 43.37280273 -0.28577805 C59.41916596 -0.5141641 73.43227119 3.24416323 85.734375 14.27734375 C87.37636339 15.90291225 88.96367518 17.54834922 90.5 19.2734375 C89.015 19.7684375 89.015 19.7684375 87.5 20.2734375 C81.94444444 16.16232639 81.94444444 16.16232639 80.5 13.2734375 C77.43678362 11.92437563 74.31997926 10.76821743 71.1875 9.58984375 C70.300625 9.15542969 69.41375 8.72101562 68.5 8.2734375 C68.005 6.7884375 68.005 6.7884375 67.5 5.2734375 C59.97004463 3.573125 52.37153239 3.12620915 44.67553711 3.06811523 C43.84516937 3.05821564 43.01480164 3.04831604 42.15927124 3.03811646 C39.4486565 3.00684357 36.73802431 2.98188124 34.02734375 2.95703125 C32.13448158 2.93643207 30.2416237 2.91543488 28.34877014 2.89405823 C23.39229838 2.8391434 18.43578723 2.78960058 13.47924805 2.74121094 C8.41126037 2.69077106 3.34332913 2.63520295 -1.72460938 2.58007812 C-11.64969124 2.4728713 -21.57482234 2.37134479 -31.5 2.2734375 C-31.5 1.9434375 -31.5 1.6134375 -31.5 1.2734375 C-20.98603348 0.37494123 -10.54588751 0.06613899 0 0 Z " fill="#7EDEE4" transform="translate(125.5,35.7265625)"/>
<path d="M0 0 C1.98 0 3.96 0 6 0 C7.67110042 2.96178773 8.32682752 5.37071192 8.625 8.75 C8.69976562 9.54921875 8.77453125 10.3484375 8.8515625 11.171875 C8.92503906 12.07679688 8.92503906 12.07679688 9 13 C7.109375 13.58984375 7.109375 13.58984375 5 14 C3.25 12.5625 3.25 12.5625 2 11 C1.01 13.31 0.02 15.62 -1 18 C1.31 18.33 3.62 18.66 6 19 C6.66 20.65 7.32 22.3 8 24 C2.72 24 -2.56 24 -8 24 C-9.125 16.125 -9.125 16.125 -7.12890625 12.59765625 C-6.71962891 11.85322266 -6.31035156 11.10878906 -5.88867188 10.34179688 C-5.2322168 9.21354492 -5.2322168 9.21354492 -4.5625 8.0625 C-4.12873047 7.28326172 -3.69496094 6.50402344 -3.24804688 5.70117188 C-2.18154171 3.79083844 -1.09899146 1.89176929 0 0 Z " fill="#185C82" transform="translate(158,223)"/>
<path d="M0 0 C0.495 1.485 0.495 1.485 1 3 C-5.34926828 8.44222996 -10.091336 9.29851214 -18.1965332 9.31884766 C-19.57288185 9.33391609 -19.57288185 9.33391609 -20.97703552 9.34928894 C-24.00161122 9.38011198 -27.02609843 9.39715374 -30.05078125 9.4140625 C-32.15114605 9.43277484 -34.25150333 9.4523483 -36.35185242 9.4727478 C-41.87390718 9.52406793 -47.39598631 9.5636944 -52.91815186 9.60089111 C-58.55552194 9.64093141 -64.19279064 9.69202367 -69.83007812 9.7421875 C-80.88665461 9.8389455 -91.94327294 9.92232917 -103 10 C-103.33 16.27 -103.66 22.54 -104 29 C-104.33 29 -104.66 29 -105 29 C-105 21.74 -105 14.48 -105 7 C-102.09300293 6.98541748 -99.18600586 6.97083496 -96.19091797 6.95581055 C-86.58356644 6.90546169 -76.97637695 6.83886594 -67.36918449 6.76428509 C-61.54463969 6.71956777 -55.72016505 6.68031444 -49.89550781 6.65356445 C-44.27383231 6.62754536 -38.65242663 6.58715235 -33.03091812 6.53681374 C-30.88677452 6.52013568 -28.74258424 6.50862726 -26.59838486 6.50238609 C-23.59378559 6.49275544 -20.58987811 6.46470776 -17.58544922 6.43237305 C-16.69999924 6.43380814 -15.81454926 6.43524323 -14.90226746 6.4367218 C-9.88005243 6.3603418 -6.32251912 5.84152794 -2 3 C-1.34 2.01 -0.68 1.02 0 0 Z " fill="#E7F3F5" transform="translate(174,96)"/>
<path d="M0 0 C1.50802185 0.01419228 1.50802185 0.01419228 3.04650879 0.02867126 C6.36346822 0.06229983 9.68005007 0.11042917 12.99682617 0.15869141 C15.29895547 0.18486356 17.60109523 0.21013017 19.90324402 0.23452759 C25.95813242 0.30112903 32.0128005 0.38003295 38.06750488 0.46148682 C44.24763543 0.54245498 50.42789509 0.61180521 56.6081543 0.68212891 C68.73135594 0.82179064 80.8543566 0.97444755 92.97729492 1.13525391 C92.97729492 1.46525391 92.97729492 1.79525391 92.97729492 2.13525391 C91.71719604 2.13889954 90.45709717 2.14254517 89.15881348 2.14630127 C77.27050613 2.18327857 65.38245716 2.24108154 53.49434662 2.31915665 C47.38285769 2.35862769 41.27151277 2.39081821 35.15991211 2.40625 C29.25937648 2.42141871 23.35923679 2.45586895 17.45887756 2.50356293 C15.21032659 2.51837435 12.9617191 2.52629478 10.71311951 2.52713776 C7.55791248 2.52950978 4.40379749 2.55660999 1.2487793 2.58935547 C0.32376617 2.5843251 -0.60124695 2.57929474 -1.55429077 2.57411194 C-9.05293421 2.69413298 -13.87116019 5.03422398 -20.02270508 9.13525391 C-20.80239292 10.82457757 -21.57561796 12.51879594 -22.26098633 14.24853516 C-23.35495911 16.95822158 -24.69138926 19.53601825 -26.02270508 22.13525391 C-24.37270508 22.13525391 -22.72270508 22.13525391 -21.02270508 22.13525391 C-21.02270508 22.79525391 -21.02270508 23.45525391 -21.02270508 24.13525391 C-23.34879078 24.51588611 -25.68325772 24.84795335 -28.02270508 25.13525391 C-29.02270508 24.13525391 -29.02270508 24.13525391 -29.46020508 21.63525391 C-28.49401449 13.90572917 -22.72479769 8.45424199 -17.05004883 3.54541016 C-11.53413323 -0.29128643 -6.48788443 -0.11354601 0 0 Z " fill="#ADE9EB" transform="translate(83.022705078125,56.86474609375)"/>
<path d="M0 0 C0 0.33 0 0.66 0 1 C-1.10408203 1.00773438 -1.10408203 1.00773438 -2.23046875 1.015625 C-5.943447 2.33532954 -6.58475526 4.10260758 -8.28320312 7.53125 C-8.62287109 8.2634375 -8.96253906 8.995625 -9.3125 9.75 C-9.67150391 10.46671875 -10.03050781 11.1834375 -10.40039062 11.921875 C-12.23690754 15.72783767 -13.50229615 18.67514501 -13 23 C-9.59062443 24.70468779 -5.37075009 24.20589392 -1.5859375 24.16601562 C0.3984375 24.23046875 0.3984375 24.23046875 4 25 C6.2265625 28.05078125 6.2265625 28.05078125 8 31 C9.32 31 10.64 31 12 31 C12.66 29.68 13.32 28.36 14 27 C14 28.65 14 30.3 14 32 C12.35 32.66 10.7 33.32 9 34 C7.29115995 32.37660195 5.62553283 30.70680947 4 29 C4 28.34 4 27.68 4 27 C-4.35788312 26.58808012 -4.35788312 26.58808012 -11.8203125 29.40234375 C-13.03888563 31.19888639 -13.03888563 31.19888639 -14 34 C-18.875 33.125 -18.875 33.125 -20 32 C-21.04614932 25.62988285 -17.64714613 20.81562115 -14.6875 15.4375 C-14.18798828 14.50486328 -13.68847656 13.57222656 -13.17382812 12.61132812 C-5.49943426 -1.64983028 -5.49943426 -1.64983028 0 0 Z " fill="#C5D5DE" transform="translate(163,222)"/>
<path d="M0 0 C1.09648361 -0.00642769 1.09648361 -0.00642769 2.21511841 -0.01298523 C3.75652027 -0.01870904 5.29794912 -0.01924319 6.83935547 -0.01489258 C9.18113992 -0.01173784 11.52165319 -0.03519606 13.86328125 -0.06054688 C15.36718592 -0.06282081 16.87109396 -0.06352292 18.375 -0.0625 C19.06689423 -0.07170975 19.75878845 -0.08091949 20.47164917 -0.09040833 C31.0546777 0.00886224 37.1452259 6.17892229 44.3203125 13.30078125 C46.74459065 15.8954404 49.03379366 18.58489349 51.3203125 21.30078125 C57.70405736 28.60173083 64.40890005 35.50563555 71.3203125 42.30078125 C68.3203125 42.30078125 68.3203125 42.30078125 66.43847656 40.77539062 C65.74463867 40.07220703 65.05080078 39.36902344 64.3359375 38.64453125 C63.56507813 37.86851562 62.79421875 37.0925 62 36.29296875 C61.19820313 35.47054687 60.39640625 34.648125 59.5703125 33.80078125 C58.78398437 33.00929687 57.99765625 32.2178125 57.1875 31.40234375 C52.93949783 27.09788972 48.85985927 22.69719568 44.91064453 18.11816406 C42.5779731 15.45245849 40.12897229 12.93974531 37.6328125 10.42578125 C36.72144531 9.50023437 35.81007812 8.5746875 34.87109375 7.62109375 C30.116651 3.29622546 26.35588528 2.99253103 20.046875 3 C19.24551117 2.99571487 18.44414734 2.99142975 17.61849976 2.98701477 C15.92568912 2.98128072 14.23285384 2.9807644 12.54003906 2.98510742 C9.9611565 2.98826187 7.38342787 2.96481698 4.8046875 2.93945312 C3.15625144 2.93717935 1.50781231 2.936477 -0.140625 2.9375 C-0.9064389 2.92829025 -1.67225281 2.91908051 -2.46127319 2.90959167 C-7.27021926 2.95077088 -10.45203175 3.76845647 -14.6796875 6.30078125 C-13.71263529 3.66336614 -13.09709152 2.52199083 -10.57763672 1.18676758 C-7.02069734 0.09930903 -3.68328985 -0.00482364 0 0 Z " fill="#E4EDF1" transform="translate(134.6796875,149.69921875)"/>
<path d="M0 0 C0 0.99 0 1.98 0 3 C-8.44626218 6.58288356 -16.62483324 6.47585716 -25.62890625 6.51171875 C-27.23031469 6.52858934 -28.83171009 6.54674274 -30.43309021 6.56611633 C-34.62016724 6.61336447 -38.80719134 6.64333591 -42.9944458 6.66955566 C-47.27830453 6.69948922 -51.56198131 6.74597517 -55.84570312 6.79101562 C-64.23037881 6.87676169 -72.61507154 6.94423355 -81 7 C-76.22584917 3.81723278 -71.3748863 3.87659894 -65.75439453 3.84228516 C-63.93187668 3.82689194 -63.93187668 3.82689194 -62.07254028 3.81118774 C-60.77243011 3.80388641 -59.47231995 3.79658508 -58.1328125 3.7890625 C-56.77048957 3.77607969 -55.40817436 3.76226151 -54.04586792 3.74765015 C-48.28504266 3.68638903 -42.52424332 3.6320635 -36.76318359 3.59863281 C-33.22881316 3.5775805 -29.694823 3.54220089 -26.16067123 3.49787521 C-24.17564752 3.47701269 -22.19047987 3.47168761 -20.20535278 3.46670532 C-13.18974837 3.3715426 -6.43361149 0 0 0 Z " fill="#9AC2D0" transform="translate(189,123)"/>
<path d="M0 0 C0.6875 1.75 0.6875 1.75 1 4 C0.53102295 4.60360352 0.0620459 5.20720703 -0.42114258 5.82910156 C-2.23965969 8.32952744 -2.55944078 9.94039464 -2.94921875 12.984375 C-3.07490234 13.91894531 -3.20058594 14.85351562 -3.33007812 15.81640625 C-3.44802734 16.78449219 -3.56597656 17.75257812 -3.6875 18.75 C-3.81705078 19.73355469 -3.94660156 20.71710938 -4.08007812 21.73046875 C-4.39752398 24.15246306 -4.70374415 26.57533799 -5 29 C-4.34 29 -3.68 29 -3 29 C-2.34 31.31 -1.68 33.62 -1 36 C0.98567708 35.96744792 2.97135417 35.93489583 4.95703125 35.90234375 C7 36 7 36 10 37 C10.84189347 42.38955736 11.35092316 47.74393051 11.6875 53.1875 C11.74744141 53.98091797 11.80738281 54.77433594 11.86914062 55.59179688 C11.91619141 56.35943359 11.96324219 57.12707031 12.01171875 57.91796875 C12.05772217 58.60656982 12.10372559 59.2951709 12.15112305 60.00463867 C12 62 12 62 10 66 C9.34 57.09 8.68 48.18 8 39 C4.7 38.67 1.4 38.34 -2 38 C-5.21788348 34.93908645 -6.88886395 32.40833066 -7.23828125 27.98046875 C-7.41195832 19.10465645 -7.56674053 8.18799163 -1.36328125 1.140625 C-0.68845703 0.57601562 -0.68845703 0.57601562 0 0 Z " fill="#80E1DA" transform="translate(37,65)"/>
<path d="M0 0 C0.33 1.32 0.66 2.64 1 4 C-0.98 4.99 -0.98 4.99 -3 6 C-3 6.99 -3 7.98 -3 9 C-2.01 9.33 -1.02 9.66 0 10 C1.80162669 12.52227736 2.04839136 13.64513 1.625 16.75 C1.315625 17.86375 1.315625 17.86375 1 19 C-0.6875 19.75 -0.6875 19.75 -3 20 C-6.33324607 17.80493552 -8.86308856 15.3740707 -11 12 C-11 11.34 -11 10.68 -11 10 C-12.32 9.67 -13.64 9.34 -15 9 C-15 8.34 -15 7.68 -15 7 C-14.4225 7.165 -13.845 7.33 -13.25 7.5 C-10.2198152 8.1733744 -7.82540729 8.41270365 -5 7 C-5 6.01 -5 5.02 -5 4 C-2.5 1.8125 -2.5 1.8125 0 0 Z " fill="#256282" transform="translate(117,236)"/>
<path d="M0 0 C0.33 0 0.66 0 1 0 C1.16972432 3.97904231 1.33521853 7.95825017 1.5 11.9375 C1.54769531 13.05447266 1.59539063 14.17144531 1.64453125 15.32226562 C1.90041441 21.55484826 2.05291845 27.76223786 2 34 C2.66 34 3.32 34 4 34 C4.33 35.65 4.66 37.3 5 39 C10.12521533 40.2214828 10.12521533 40.2214828 14.875 38.875 C16.11644396 36.94484234 16.11644396 36.94484234 16.9375 34.375 C18 32 18 32 20.125 31.1875 C20.74375 31.125625 21.3625 31.06375 22 31 C22 33.31 22 35.62 22 38 C16.6765536 41.54896427 13.42169437 42.91738491 7 42 C3.48346746 40.00577592 1.30316225 37.90948675 0 34 C-0.08481773 31.41369776 -0.11598229 28.85521944 -0.09765625 26.26953125 C-0.0962413 25.51911057 -0.09482635 24.76868988 -0.09336853 23.99552917 C-0.0877756 21.6011454 -0.07522444 19.20685547 -0.0625 16.8125 C-0.05748408 15.18815239 -0.05292134 13.56380332 -0.04882812 11.93945312 C-0.03780848 7.95959931 -0.02054873 3.97981556 0 0 Z " fill="#3E87A3" transform="translate(46,150)"/>
<path d="M0 0 C0.33 0.66 0.66 1.32 1 2 C3.12576782 2.46651207 3.12576782 2.46651207 5.5625 2.625 C6.38878906 2.69976562 7.21507812 2.77453125 8.06640625 2.8515625 C8.70449219 2.90054688 9.34257812 2.94953125 10 3 C10.66 4.65 11.32 6.3 12 8 C6.72 8 1.44 8 -4 8 C-4.33 6.02 -4.66 4.04 -5 2 C-3.35 1.34 -1.7 0.68 0 0 Z " fill="#1A5A7E" transform="translate(154,239)"/>
<path d="M0 0 C2.52394612 3.12488567 4.39701907 6.31314387 6 10 C5.67 10.66 5.34 11.32 5 12 C3.35 11.67 1.7 11.34 0 11 C-0.33 11.66 -0.66 12.32 -1 13 C-3.64 13 -6.28 13 -9 13 C-9.33 12.34 -9.66 11.68 -10 11 C-9.22265625 9.2734375 -9.22265625 9.2734375 -8.0625 7.375 C-7.381875 6.26125 -6.70125 5.1475 -6 4 C-5.38125 4.495 -4.7625 4.99 -4.125 5.5 C-2.16119096 7.19222773 -2.16119096 7.19222773 0 7 C0 4.69 0 2.38 0 0 Z M-6 9 C-6 9.66 -6 10.32 -6 11 C-5.34 10.67 -4.68 10.34 -4 10 C-4.66 9.67 -5.32 9.34 -6 9 Z " fill="#52809B" transform="translate(166,229)"/>
<path d="M0 0 C3.04386724 -0.08226668 5.07175348 0.02391783 8 1 C8.6875 3.0625 8.6875 3.0625 9 5 C10.0725 5.061875 11.145 5.12375 12.25 5.1875 C16 6 16 6 18.4375 8.375 C20 11 20 11 20 14 C20.66 14.33 21.32 14.66 22 15 C22.4640625 15.9590625 22.4640625 15.9590625 22.9375 16.9375 C23.95345922 19.31971493 23.95345922 19.31971493 27 21 C26.34 21.66 25.68 22.32 25 23 C12 10 12 10 10.31640625 8.2109375 C7.108018 4.8576543 4.61545929 2.25876163 0 1 C0 0.67 0 0.34 0 0 Z M18 11 C19 14 19 14 19 14 Z " fill="#276B91" transform="translate(162,150)"/>
<path d="M0 0 C0.33 0.66 0.66 1.32 1 2 C0.67 2.99 0.34 3.98 0 5 C1.32 5.33 2.64 5.66 4 6 C1.3990807 8.49688253 0.10495017 8.99079384 -3.5625 9.3125 C-7 9 -7 9 -10 7 C-10.1875 4.375 -10.1875 4.375 -10 2 C-7.39583333 1.47916667 -4.79166667 0.95833333 -2.1875 0.4375 C-1.465625 0.293125 -0.74375 0.14875 0 0 Z " fill="#236083" transform="translate(205,245)"/>
<path d="M0 0 C0.33 0 0.66 0 1 0 C1.7553256 7.48331846 1.18178948 11.99616722 -3.58984375 17.9296875 C-5.19769777 20.29024881 -5.61374715 22.19355521 -6 25 C-7.65 25 -9.3 25 -11 25 C-11.33 26.65 -11.66 28.3 -12 30 C-13.98 29.67 -15.96 29.34 -18 29 C-18 28.34 -18 27.68 -18 27 C-17.443125 26.938125 -16.88625 26.87625 -16.3125 26.8125 C-10.17959005 24.6576938 -5.8858027 17.57258452 -3 12 C-1.72614074 8.04533246 -0.78656403 4.07771354 0 0 Z " fill="#2B82A2" transform="translate(207,96)"/>
<path d="M0 0 C0.66 0 1.32 0 2 0 C2.66 2.31 3.32 4.62 4 7 C5.98567708 6.96744792 7.97135417 6.93489583 9.95703125 6.90234375 C12 7 12 7 15 8 C15.84189347 13.38955736 16.35092316 18.74393051 16.6875 24.1875 C16.74744141 24.98091797 16.80738281 25.77433594 16.86914062 26.59179688 C16.91619141 27.35943359 16.96324219 28.12707031 17.01171875 28.91796875 C17.05772217 29.60656982 17.10372559 30.2951709 17.15112305 31.00463867 C17 33 17 33 15 37 C14.34 28.09 13.68 19.18 13 10 C9.7 9.67 6.4 9.34 3 9 C0.60982865 5.76623876 0 3.99667812 0 0 Z " fill="#60D1D2" transform="translate(32,94)"/>
<path d="M0 0 C4.44953329 2.02114188 7.3409448 5.00971373 10.75 8.4375 C11.65298828 9.31631836 11.65298828 9.31631836 12.57421875 10.21289062 C13.14269531 10.78072266 13.71117187 11.34855469 14.296875 11.93359375 C14.81604492 12.44978271 15.33521484 12.96597168 15.87011719 13.49780273 C17 15 17 15 17 18 C14 19 14 19 11.8125 18.0625 C10.9153125 17.5365625 10.9153125 17.5365625 10 17 C10.33 15.35 10.66 13.7 11 12 C10.01 11.67 9.02 11.34 8 11 C8 10.34 8 9.68 8 9 C7.01 9 6.02 9 5 9 C4.7525 8.4225 4.505 7.845 4.25 7.25 C2.83316683 4.6997003 1.12372463 2.98214299 -1 1 C-0.67 0.67 -0.34 0.34 0 0 Z " fill="#568199" transform="translate(201,154)"/>
<path d="M0 0 C0 0.66 0 1.32 0 2 C-3.63 2.33 -7.26 2.66 -11 3 C-11 3.66 -11 4.32 -11 5 C-10.34 5 -9.68 5 -9 5 C-9 5.99 -9 6.98 -9 8 C-10.45792884 8.05399736 -11.91642712 8.09279177 -13.375 8.125 C-14.18710937 8.14820313 -14.99921875 8.17140625 -15.8359375 8.1953125 C-18 8 -18 8 -20 6 C-19.46428571 2.46428571 -19.46428571 2.46428571 -18 1 C-15.34912921 0.76221425 -12.71871877 0.57754265 -10.0625 0.4375 C-8.9497168 0.37272461 -8.9497168 0.37272461 -7.81445312 0.30664062 C-2.44580853 0 -2.44580853 0 0 0 Z " fill="#3D7391" transform="translate(67,221)"/>
<path d="M0 0 C3.19902639 -0.08886184 5.92677456 0.08941469 9 1 C9 1.66 9 2.32 9 3 C9.928125 3.28875 10.85625 3.5775 11.8125 3.875 C15 5 15 5 18 7 C18 7.66 18 8.32 18 9 C18.66 9 19.32 9 20 9 C20.99 11.31 21.98 13.62 23 16 C19.34526702 15.39731676 19.04044913 15.05185786 16.5625 11.875 C12.29599083 6.52247031 6.03064955 3.94374437 0 1 C0 0.67 0 0.34 0 0 Z " fill="#4BC7E2" transform="translate(182,59)"/>
<path d="M0 0 C0 0.99 0 1.98 0 3 C-0.66 3 -1.32 3 -2 3 C-2.33 3.66 -2.66 4.32 -3 5 C-3 4.01 -3 3.02 -3 2 C-8.445 2.495 -8.445 2.495 -14 3 C-14 3.66 -14 4.32 -14 5 C-12.68 5.33 -11.36 5.66 -10 6 C-10.99 6.495 -10.99 6.495 -12 7 C-12.33 12.94 -12.66 18.88 -13 25 C-13.33 25 -13.66 25 -14 25 C-14.33 17.74 -14.66 10.48 -15 3 C-15.66 3 -16.32 3 -17 3 C-17 2.34 -17 1.68 -17 1 C-17.66 0.67 -18.32 0.34 -19 0 C-16.95920995 -0.1968121 -14.91729993 -0.38202831 -12.875 -0.5625 C-11.73804688 -0.66691406 -10.60109375 -0.77132812 -9.4296875 -0.87890625 C-6.11102007 -0.99608016 -3.2437314 -0.6655072 0 0 Z " fill="#1F6181" transform="translate(73,223)"/>
<path d="M0 0 C4.07778102 -0.72493885 6.09232628 -0.52052045 9.73828125 1.5703125 C14.8799586 5.23001789 19.29105943 8.88421991 23 14 C20.8125 13.875 20.8125 13.875 18 13 C16.90765464 11.54353952 15.81605699 10.08650391 14.73046875 8.625 C11.59682615 5.6823469 7.53026231 4.53546182 3.546875 3.078125 C1 2 1 2 0 0 Z " fill="#7DD5E4" transform="translate(193,42)"/>
<path d="M0 0 C0.66 0.33 1.32 0.66 2 1 C1.625 2.9375 1.625 2.9375 1 5 C-1.94386623 6.47193312 -4.37390036 5.84936173 -7.625 5.5625 C-8.81351562 5.46066406 -10.00203125 5.35882813 -11.2265625 5.25390625 C-12.14179687 5.17011719 -13.05703125 5.08632812 -14 5 C-14 4.34 -14 3.68 -14 3 C-9.49646738 1.24252386 -5.82360189 0.80705592 -1 1 C-1.99 1.495 -1.99 1.495 -3 2 C-2.01 2.33 -1.02 2.66 0 3 C0 2.01 0 1.02 0 0 Z " fill="#19658C" transform="translate(73,223)"/>
<path d="M0 0 C0.33 0 0.66 0 1 0 C1.16972432 3.97904231 1.33521853 7.95825017 1.5 11.9375 C1.54769531 13.05447266 1.59539063 14.17144531 1.64453125 15.32226562 C1.90041441 21.55484826 2.05291845 27.76223786 2 34 C2.66 34 3.32 34 4 34 C4 35.65 4 37.3 4 39 C1 37 1 37 0 34 C-0.08481773 31.41369776 -0.11598229 28.85521944 -0.09765625 26.26953125 C-0.0962413 25.51911057 -0.09482635 24.76868988 -0.09336853 23.99552917 C-0.0877756 21.6011454 -0.07522444 19.20685547 -0.0625 16.8125 C-0.05748408 15.18815239 -0.05292134 13.56380332 -0.04882812 11.93945312 C-0.03780848 7.95959931 -0.02054873 3.97981556 0 0 Z " fill="#3B8DA7" transform="translate(46,150)"/>
<path d="M0 0 C1.98 0 3.96 0 6 0 C6.66 1.98 7.32 3.96 8 6 C4.535 4.02 4.535 4.02 1 2 C0.34 4.31 -0.32 6.62 -1 9 C-1.66 9 -2.32 9 -3 9 C-3.33 10.65 -3.66 12.3 -4 14 C-4.99 13.67 -5.98 13.34 -7 13 C-3.535 6.565 -3.535 6.565 0 0 Z " fill="#2A6182" transform="translate(158,223)"/>
<path d="M0 0 C0.33 0.66 0.66 1.32 1 2 C0.34 2 -0.32 2 -1 2 C-1.33 2.99 -1.66 3.98 -2 5 C-2.66 5 -3.32 5 -4 5 C-4.08378906 5.54269531 -4.16757812 6.08539063 -4.25390625 6.64453125 C-5.25577222 9.80749031 -6.97063777 12.02352204 -8.9375 14.6875 C-9.64777344 15.66074219 -10.35804687 16.63398437 -11.08984375 17.63671875 C-13 20 -13 20 -15 21 C-13.54301636 16.8718797 -11.49073764 13.58959248 -9 10 C-8.360625 8.96875 -7.72125 7.9375 -7.0625 6.875 C-4.97739967 3.96849651 -2.88635744 2.08459148 0 0 Z " fill="#A7F0E4" transform="translate(51,45)"/>
<path d="M0 0 C2.04219706 1.69179328 2.91793306 2.63727666 3.51171875 5.26171875 C3.56972656 6.06222656 3.62773437 6.86273438 3.6875 7.6875 C3.75324219 8.49574219 3.81898438 9.30398437 3.88671875 10.13671875 C3.92410156 10.75160156 3.96148437 11.36648437 4 12 C2.35 12.33 0.7 12.66 -1 13 C-2.40742022 10.18515955 -1.66652164 8.43063887 -1.0625 5.375 C-0.86785156 4.37210938 -0.67320312 3.36921875 -0.47265625 2.3359375 C-0.31667969 1.56507813 -0.16070312 0.79421875 0 0 Z " fill="#3B718D" transform="translate(172,241)"/>
<path d="M0 0 C0.66 1.32 1.32 2.64 2 4 C2.66 4 3.32 4 4 4 C4.33 4.99 4.66 5.98 5 7 C8.02763393 7.66621139 10.8945232 8.14068435 14 8 C16.98119541 5.77023837 16.98119541 5.77023837 19 3 C19.66 2.67 20.32 2.34 21 2 C20.7395304 5.21245843 20.42509628 6.6147565 18 8.8125 C13.90672549 10.43275449 10.34048705 10.84136253 6 10 C2.71345162 7.60355847 1.3162277 6.09463435 0.1875 2.1875 C0.125625 1.465625 0.06375 0.74375 0 0 Z " fill="#387996" transform="translate(96,182)"/>
<path d="M0 0 C0.99 0.33 1.98 0.66 3 1 C3.48929664 8.21712538 3.48929664 8.21712538 1.125 12 C-1 14 -1 14 -3 14 C-2.505 13.1028125 -2.505 13.1028125 -2 12.1875 C-0.79212012 9.94613529 -0.79212012 9.94613529 -1 7 C-0.68330179 4.66435067 -0.35179197 2.3306218 0 0 Z " fill="#3D9BBB" transform="translate(172,87)"/>
<path d="M0 0 C2.88913263 0.34846994 3.84598381 0.82132771 5.78125 3.06640625 C6.92830006 4.73223576 8.07413142 6.39890509 9.21875 8.06640625 C9.8065625 8.70449219 10.394375 9.34257812 11 10 C12.32 10 13.64 10 15 10 C15.66 9.01 16.32 8.02 17 7 C16.67 8.65 16.34 10.3 16 12 C14.3125 12.75 14.3125 12.75 12 13 C8.66675393 10.80493552 6.13691144 8.3740707 4 5 C4 4.34 4 3.68 4 3 C2.68 2.67 1.36 2.34 0 2 C0 1.34 0 0.68 0 0 Z " fill="#E0E9ED" transform="translate(102,243)"/>
<path d="M0 0 C0.66 0 1.32 0 2 0 C2.33 0.66 2.66 1.32 3 2 C3.99 2 4.98 2 6 2 C6 2.99 6 3.98 6 5 C7.30456502 6.45034604 7.30456502 6.45034604 9 7.6875 C10.485 8.8321875 10.485 8.8321875 12 10 C11.67 10.99 11.34 11.98 11 13 C2.30169972 5.66997167 2.30169972 5.66997167 0 3 C0 2.01 0 1.02 0 0 Z " fill="#2D6484" transform="translate(189,173)"/>
<path d="M0 0 C0.33 0 0.66 0 1 0 C1.76490782 7.57825341 1.01088145 12.20721424 -3.4921875 18.41796875 C-3.98976562 18.94003906 -4.48734375 19.46210937 -5 20 C-5.66 20 -6.32 20 -7 20 C-6.71253906 19.45214844 -6.42507812 18.90429688 -6.12890625 18.33984375 C-4.89912572 15.79092147 -3.90726966 13.22107004 -2.9375 10.5625 C-2.42509766 9.17224609 -2.42509766 9.17224609 -1.90234375 7.75390625 C-1.05757758 5.17572379 -0.4698769 2.66909453 0 0 Z " fill="#398EB0" transform="translate(207,96)"/>
<path d="M0 0 C2 2 2 2 2.15234375 3.953125 C1.59598109 9.90114762 0.22888798 12.77111202 -4 17 C-4.33 16.01 -4.66 15.02 -5 14 C-4.01 13.34 -3.02 12.68 -2 12 C-1.45459417 9.64105036 -1.45459417 9.64105036 -1.375 7 C-1.0794702 2.1589404 -1.0794702 2.1589404 0 0 Z " fill="#95B3C2" transform="translate(119,228)"/>
<path d="M0 0 C0.90105469 0.00902344 1.80210938 0.01804688 2.73046875 0.02734375 C3.41753906 0.03894531 4.10460937 0.05054688 4.8125 0.0625 C4.8125 0.7225 4.8125 1.3825 4.8125 2.0625 C3.99265625 2.18367188 3.1728125 2.30484375 2.328125 2.4296875 C1.25046875 2.59726562 0.1728125 2.76484375 -0.9375 2.9375 C-2.53851563 3.18113281 -2.53851563 3.18113281 -4.171875 3.4296875 C-7.13486919 3.91245962 -7.13486919 3.91245962 -9.390625 5.1953125 C-11.1875 6.0625 -11.1875 6.0625 -14.1875 5.0625 C-9.21630553 1.63789937 -6.0437958 -0.07849085 0 0 Z " fill="#7BEAE1" transform="translate(78.1875,56.9375)"/>
<path d="M0 0 C3.08669204 3.08669204 3.44855089 3.91927658 4 8 C1.36 8 -1.28 8 -4 8 C-2.68 5.36 -1.36 2.72 0 0 Z M0 5 C0 5.66 0 6.32 0 7 C0.66 6.67 1.32 6.34 2 6 C1.34 5.67 0.68 5.34 0 5 Z " fill="#E5EFF4" transform="translate(160,233)"/>
<path d="M0 0 C3.04386724 -0.08226668 5.07175348 0.02391783 8 1 C8.6875 3.0625 8.6875 3.0625 9 5 C11.31 5.33 13.62 5.66 16 6 C15.67 6.66 15.34 7.32 15 8 C14.34 8 13.68 8 13 8 C12.67 8.66 12.34 9.32 12 10 C11.55269531 9.51789063 11.10539063 9.03578125 10.64453125 8.5390625 C6.04405045 3.69203185 6.04405045 3.69203185 0 1 C0 0.67 0 0.34 0 0 Z " fill="#357A9B" transform="translate(162,150)"/>
<path d="M0 0 C0.6875 1.75 0.6875 1.75 1 4 C0.05377841 5.37202131 -0.95884159 6.69855198 -2 8 C-3.10703744 10.29846786 -4.04379571 12.63225604 -5 15 C-6.33256282 11.35879332 -5.65840377 9.33123446 -4.1875 5.8125 C-3.83042969 4.93207031 -3.47335938 4.05164063 -3.10546875 3.14453125 C-2 1 -2 1 0 0 Z " fill="#82EDDB" transform="translate(37,65)"/>
<path d="M0 0 C1.65 0 3.3 0 5 0 C4.01 1.98 3.02 3.96 2 6 C1.01 6 0.02 6 -1 6 C-1.99 6.33 -2.98 6.66 -4 7 C-4.33 6.34 -4.66 5.68 -5 5 C-4.34 4.01 -3.68 3.02 -3 2 C-2.01 2 -1.02 2 0 2 C0 1.34 0 0.68 0 0 Z " fill="#236083" transform="translate(154,235)"/>
<path d="M0 0 C1.45792884 -0.05399736 2.91642712 -0.09279177 4.375 -0.125 C5.18710938 -0.14820313 5.99921875 -0.17140625 6.8359375 -0.1953125 C9 0 9 0 11 2 C11.125 4.625 11.125 4.625 11 7 C10.01 7 9.02 7 8 7 C8.33 6.01 8.66 5.02 9 4 C6.36 3.67 3.72 3.34 1 3 C0.67 2.01 0.34 1.02 0 0 Z " fill="#EDF4F8" transform="translate(102,229)"/>
<path d="M0 0 C4.94112011 0.14973091 7.09196492 2.75569582 10.28515625 6.14453125 C11.13400391 7.06298828 11.13400391 7.06298828 12 8 C12.97427092 8.98403805 13.95277002 9.96392844 14.9375 10.9375 C15.618125 11.618125 16.29875 12.29875 17 13 C13.21416406 12.44350741 11.62198024 10.89227962 9.0625 8.125 C6.22784395 5.16318181 3.64886913 2.93846172 0 1 C0 0.67 0 0.34 0 0 Z " fill="#D9E3E7" transform="translate(162,151)"/>
<path d="M0 0 C1.32 0 2.64 0 4 0 C4 0.66 4 1.32 4 2 C4.66 2 5.32 2 6 2 C6.99 4.31 7.98 6.62 9 9 C6.66471585 8.82701599 5.30822418 8.29774631 3.62109375 6.66796875 C0 2.42788462 0 2.42788462 0 0 Z " fill="#3FB9DB" transform="translate(196,66)"/>
<path d="M0 0 C1.5 1.1875 1.5 1.1875 3 3 C3.1875 5.6875 3.1875 5.6875 3 8 C1.35 8.33 -0.3 8.66 -2 9 C-2.66 8.01 -3.32 7.02 -4 6 C-3.01 5.01 -2.02 4.02 -1 3 C-0.67 3.66 -0.34 4.32 0 5 C0 3.35 0 1.7 0 0 Z " fill="#457A93" transform="translate(115,245)"/>
<path d="M0 0 C0.66 0.33 1.32 0.66 2 1 C1.3503125 1.99 1.3503125 1.99 0.6875 3 C-1.32464663 6.57714956 -2.62428695 10.13490142 -4 14 C-4.33 14 -4.66 14 -5 14 C-5.45772527 8.27843418 -4.54034087 5.50588838 -1 1 C-0.67 0.67 -0.34 0.34 0 0 Z " fill="#46A1B7" transform="translate(101,137)"/>
<path d="M0 0 C0.33 0 0.66 0 1 0 C1.125 7.75 1.125 7.75 0 10 C-1.65 9.67 -3.3 9.34 -5 9 C-5 8.01 -5 7.02 -5 6 C-3.68 5.67 -2.36 5.34 -1 5 C-0.67 3.35 -0.34 1.7 0 0 Z " fill="#316789" transform="translate(101,244)"/>
<path d="M0 0 C0.33 0.66 0.66 1.32 1 2 C6.83680873 3.37630292 6.83680873 3.37630292 12 1 C12.99 1 13.98 1 15 1 C15 1.66 15 2.32 15 3 C11.07178453 5.61881031 7.56556861 5.28987737 3 5 C2.01 4.34 1.02 3.68 0 3 C0 2.01 0 1.02 0 0 Z " fill="#357E9B" transform="translate(50,187)"/>
<path d="M0 0 C2.69082872 0.17635452 5.32851446 0.61835921 8 1 C7.67 1.66 7.34 2.32 7 3 C5.02 3 3.04 3 1 3 C1 3.99 1 4.98 1 6 C0.34 6 -0.32 6 -1 6 C-1.042721 4.33388095 -1.04063832 2.66617115 -1 1 C-0.67 0.67 -0.34 0.34 0 0 Z " fill="#48748D" transform="translate(196,246)"/>
<path d="M0 0 C3.19199167 2.41556126 5.74716687 4.68003538 8 8 C7.67 8.66 7.34 9.32 7 10 C4.50175965 8.5023304 2.13995327 6.98441782 0 5 C-0.4375 2.1875 -0.4375 2.1875 0 0 Z " fill="#85CCE0" transform="translate(216,56)"/>
<path d="M0 0 C0.66 0.66 1.32 1.32 2 2 C1.236875 2.4125 0.47375 2.825 -0.3125 3.25 C-2.9366642 4.95875809 -4.30321976 6.41017753 -6 9 C-6 6.69 -6 4.38 -6 2 C-4.02 1.34 -2.04 0.68 0 0 Z " fill="#388CA9" transform="translate(124,149)"/>
<path d="M0 0 C0.33 0.66 0.66 1.32 1 2 C4.465 1.505 4.465 1.505 8 1 C8 1.66 8 2.32 8 3 C5 5 5 5 2.3125 4.625 C1.549375 4.41875 0.78625 4.2125 0 4 C0 2.68 0 1.36 0 0 Z " fill="#396F8E" transform="translate(144,249)"/>
<path d="M0 0 C0.66 0 1.32 0 2 0 C2 0.66 2 1.32 2 2 C5.3 1.67 8.6 1.34 12 1 C11.67 2.65 11.34 4.3 11 6 C10.01 5.34 9.02 4.68 8 4 C5.9507906 3.54860541 5.9507906 3.54860541 3.8125 3.375 C2.554375 3.25125 1.29625 3.1275 0 3 C0 2.01 0 1.02 0 0 Z " fill="#618A9E" transform="translate(102,235)"/>
<path d="M0 0 C1.32 0 2.64 0 4 0 C4 1.98 4 3.96 4 6 C2.02 6.99 2.02 6.99 0 8 C0 5.36 0 2.72 0 0 Z " fill="#195582" transform="translate(206,224)"/>
<path d="M0 0 C0.65234375 1.734375 0.65234375 1.734375 1 4 C0.00390625 6.140625 0.00390625 6.140625 -1.4375 8.25 C-1.91058594 8.95640625 -2.38367188 9.6628125 -2.87109375 10.390625 C-3.24363281 10.92171875 -3.61617187 11.4528125 -4 12 C-5.231394 9.53721199 -5.07159196 7.7204945 -5 5 C-4.360625 4.731875 -3.72125 4.46375 -3.0625 4.1875 C-0.66868314 3.11332248 -0.66868314 3.11332248 0 0 Z " fill="#8FB8CC" transform="translate(226,114)"/>
<path d="M0 0 C4.41889613 1.35021826 6.34345343 3.26115668 9 7 C4.71193127 6.52354792 2.73352513 5.34097516 0 2 C0 1.34 0 0.68 0 0 Z " fill="#70CDDF" transform="translate(207,49)"/>
<path d="M0 0 C1.65 0.33 3.3 0.66 5 1 C4.67 2.98 4.34 4.96 4 7 C3.34 6.01 2.68 5.02 2 4 C1.01 3.67 0.02 3.34 -1 3 C-0.67 2.01 -0.34 1.02 0 0 Z " fill="#5F849C" transform="translate(207,221)"/>
<path d="M0 0 C1.98 0.495 1.98 0.495 4 1 C4 3.31 4 5.62 4 8 C3.34 7.01 2.68 6.02 2 5 C1.01 4.67 0.02 4.34 -1 4 C-0.67 2.68 -0.34 1.36 0 0 Z " fill="#256080" transform="translate(220,176)"/>
<path d="M0 0 C0.66 0 1.32 0 2 0 C1.50769231 6.52307692 1.50769231 6.52307692 -1.0625 8.9375 C-1.701875 9.288125 -2.34125 9.63875 -3 10 C-2.05066101 6.64566891 -1.10251165 3.30753495 0 0 Z " fill="#6B9EBA" transform="translate(220,121)"/>
<path d="M0 0 C0.66 0.33 1.32 0.66 2 1 C1.21625 1.598125 0.4325 2.19625 -0.375 2.8125 C-3.14574323 4.91085249 -3.14574323 4.91085249 -5 8 C-6.32 7.67 -7.64 7.34 -9 7 C-6.03 4.69 -3.06 2.38 0 0 Z " fill="#BCD3DA" transform="translate(198,115)"/>
<path d="M0 0 C0.99 0 1.98 0 3 0 C3 1.32 3 2.64 3 4 C5.64 4 8.28 4 11 4 C11 4.33 11 4.66 11 5 C9.54207116 5.05399736 8.08357288 5.09279177 6.625 5.125 C5.81289063 5.14820313 5.00078125 5.17140625 4.1640625 5.1953125 C2 5 2 5 0 3 C0 2.01 0 1.02 0 0 Z " fill="#43758F" transform="translate(47,224)"/>
<path d="M0 0 C3.36720387 1.39332574 4.9859524 2.9789286 7 6 C3.20411134 5.45773019 1.52788007 3.79872437 -1 1 C-0.67 0.67 -0.34 0.34 0 0 Z " fill="#5886A2" transform="translate(201,154)"/>
<path d="M0 0 C0 0.99 0 1.98 0 3 C-3.21451269 4.60725635 -6.43612536 4.05748185 -10 4 C-8.66666667 3.33333333 -7.33333333 2.66666667 -6 2 C-5.29875 1.62875 -4.5975 1.2575 -3.875 0.875 C-2 0 -2 0 0 0 Z " fill="#90B9CB" transform="translate(189,123)"/>
<path d="M0 0 C0.66 0.33 1.32 0.66 2 1 C1.625 2.9375 1.625 2.9375 1 5 C-1.95664519 6.4783226 -4.74229737 6.06032783 -8 6 C-8 5.67 -8 5.34 -8 5 C-6.02 5 -4.04 5 -2 5 C-2 4.34 -2 3.68 -2 3 C-1.34 3 -0.68 3 0 3 C0 2.01 0 1.02 0 0 Z " fill="#36728E" transform="translate(73,223)"/>
<path d="M0 0 C1.65 0 3.3 0 5 0 C5.66 1.98 6.32 3.96 7 6 C3.535 4.02 3.535 4.02 0 2 C0 1.34 0 0.68 0 0 Z " fill="#517C96" transform="translate(159,223)"/>
<path d="M0 0 C1.98 1.65 3.96 3.3 6 5 C5.67 5.66 5.34 6.32 5 7 C3.68 6.67 2.36 6.34 1 6 C0.67 4.02 0.34 2.04 0 0 Z " fill="#83A0B1" transform="translate(218,170)"/>
<path d="M0 0 C0.33 1.32 0.66 2.64 1 4 C1.99 3.67 2.98 3.34 4 3 C4.66 3.33 5.32 3.66 6 4 C6 4.66 6 5.32 6 6 C3 7 3 7 0.8125 6.0625 C0.214375 5.711875 -0.38375 5.36125 -1 5 C-0.67 3.35 -0.34 1.7 0 0 Z " fill="#1E5B7F" transform="translate(212,166)"/>
<path d="M0 0 C2 1.3125 2 1.3125 4 3 C4 3.99 4 4.98 4 6 C2.68 6.33 1.36 6.66 0 7 C0 4.69 0 2.38 0 0 Z " fill="#21688B" transform="translate(196,149)"/>
<path d="M0 0 C0.66 0 1.32 0 2 0 C2.66 0.66 3.32 1.32 4 2 C4.99 2 5.98 2 7 2 C6.01 3.32 5.02 4.64 4 6 C3.01 5.67 2.02 5.34 1 5 C1.33 4.67 1.66 4.34 2 4 C1.34 3.34 0.68 2.68 0 2 C0 1.34 0 0.68 0 0 Z " fill="#2C759A" transform="translate(211,127)"/>
<path d="M0 0 C0.33 0 0.66 0 1 0 C1 1.98 1 3.96 1 6 C-0.32 6.33 -1.64 6.66 -3 7 C-1.125 1.125 -1.125 1.125 0 0 Z " fill="#346A85" transform="translate(148,242)"/>
<path d="M0 0 C2.12508244 3.18762365 2.5020163 5.26512223 3 9 C2.01 8.67 1.02 8.34 0 8 C0 5.36 0 2.72 0 0 Z " fill="#31A6CD" transform="translate(206,77)"/>
<path d="M0 0 C0.33 0 0.66 0 1 0 C1.36923077 6.52307692 1.36923077 6.52307692 -0.5 8.9375 C-0.995 9.288125 -1.49 9.63875 -2 10 C-1.54177532 6.53058454 -1.10868317 3.32604951 0 0 Z " fill="#90E9E0" transform="translate(33,70)"/>
</svg>
